# xmcd CD database file
#
# Track frame offsets:
#	150
#	15046
#	30911
#	47928
#	69326
#	98334
#	124679
#	139030
#	154219
#	172524
#	189673
#	202645
#	216752
#	233153
#	248853
#	261766
#	273953
#	288511
#
# Disc length: 3977 seconds
#
# Revision: 0
# Processed by: cddbd v1.5.1PL0 Copyright (c) Steve Scherf et al.
# Submitted via: CDex 1.51
#
DISCID=e20f8712
DTITLE=Various Artist - Live Every Saturday - The Graffitis Matinee
DYEAR=2002
DGENRE=Country
TTITLE0=The Country Road
TTITLE1=Memories Of You
TTITLE2=Dyin' (Is Just A Part Of Livin')
TTITLE3=Ironwood
TTITLE4=Streets and Avenues
TTITLE5=Mcadoos Lane
TTITLE6=In The Afternoon
TTITLE7=Ain't No Room For Cheatin'
TTITLE8=Postcard From Marilyn
TTITLE9=Ooh Las Vegas
TTITLE10=Luxury Liner
TTITLE11=I Can't Keep My Eyes Off of You
TTITLE12=Life Bearable In Texas
TTITLE13=This is What I Do
TTITLE14=Cigarettes And Coffee Blues
TTITLE15=Ninety Miles An Hour Down A Dead End Street
TTITLE16=Blame It On The Whiskey
TTITLE17=She's Gone, Gone, Gone
EXTD=YEAR: 2002
EXTT0=
EXTT1=
EXTT2=
EXTT3=
EXTT4=
EXTT5=
EXTT6=
EXTT7=
EXTT8=
EXTT9=
EXTT10=
EXTT11=
EXTT12=
EXTT13=
EXTT14=
EXTT15=
EXTT16=
EXTT17=
PLAYORDER=
